<?xml version="1.0" encoding="UTF-8" standalone="no"?>
<svg width="60px" height="56px" viewBox="0 0 60 56" version="1.1" xmlns="http://www.w3.org/2000/svg" xmlns:xlink="http://www.w3.org/1999/xlink">
    <!-- Generator: Sketch 41.2 (35397) - http://www.bohemiancoding.com/sketch -->
    <title>taskcade-logo</title>
    <desc>Created with Sketch.</desc>
    <defs></defs>
    <g id="Page-1" stroke="none" stroke-width="1" fill="none" fill-rule="evenodd">
        <g id="taskcade-logo">
            <g id="Layer_1">
                <g id="Group">
                    <g id="Group-15">
                        <path d="M58.9008459,19.0724013 C58.9008459,16.7753341 56.8963643,15.2761955 53.4428597,14.0672128 C53.1772055,13.7286976 52.8874009,13.4143621 52.5734459,13.1483859 C52.5975963,12.930769 52.6217467,12.7131521 52.6217467,12.4955352 C52.6217467,10.0050307 51.0761223,7.85304145 48.8784375,7.00675353 C48.0090238,4.80640494 45.8837902,3.25890703 43.3963009,3.25890703 C43.1789475,3.25890703 42.961594,3.28308668 42.7442406,3.30726634 C41.6574734,2.00156497 40.0152475,1.20363636 38.2281192,1.20363636 C37.3104047,1.20363636 36.440991,1.42125326 35.6440284,1.80812774 C34.8470658,1.42125326 33.977652,1.20363636 33.0599375,1.20363636 C32.142223,1.20363636 31.2728093,1.42125326 30.4758467,1.80812774 C29.6788841,1.42125326 28.8094704,1.20363636 27.8917559,1.20363636 C26.9740414,1.20363636 26.1046276,1.42125326 25.307665,1.80812774 C24.5107024,1.42125326 23.6412887,1.20363636 22.7235742,1.20363636 C20.9364459,1.20363636 19.3183704,2.00156497 18.2074528,3.30726634 C17.9900994,3.28308668 17.7727459,3.25890703 17.5553925,3.25890703 C15.0679032,3.25890703 12.9185192,4.80640494 12.0732559,7.00675353 C9.87557112,7.87722111 8.32994669,10.0050307 8.32994669,12.4955352 C8.32994669,12.7131521 8.35409708,12.930769 8.37824746,13.1483859 C8.0642925,13.4143621 7.75033753,13.7286976 7.50883372,14.0672128 C4.51418639,15.1069379 2.05084746,16.5093579 2.05084746,19.0724013 C2.05084746,20.6682585 3.42741921,23.2554816 6.56696883,24.561183 C6.66357036,24.8513388 6.76017189,25.1414947 6.90507418,25.4074709 C6.51866807,26.2053995 6.30131463,27.0758671 6.30131463,27.994694 C6.30131463,28.9135208 6.51866807,29.7839884 6.90507418,30.581917 C6.51866807,31.3798456 6.30131463,32.2503132 6.30131463,33.1691401 C6.30131463,34.9584346 7.09827723,36.5784714 8.40239784,37.6907356 C8.37824746,37.9083525 8.35409708,38.1259693 8.35409708,38.3435862 C8.35409708,40.8340907 9.8997215,42.98608 12.0974062,43.8323679 C12.7736169,45.5491234 14.2467902,46.8790044 16.0822192,47.3625975 L21.2021001,49.4178682 C21.7092581,49.5629461 22.2164162,49.6354851 22.7477246,49.6354851 C23.6654391,49.6354851 24.5348528,49.4178682 25.3318154,49.0309937 C26.128778,49.4178682 26.9981917,49.6354851 27.9159062,49.6354851 C28.8336207,49.6354851 29.7030345,49.4178682 30.4999971,49.0309937 C31.2969597,49.4178682 32.1663734,49.6354851 33.0840879,49.6354851 C34.0018024,49.6354851 34.8712162,49.4178682 35.6681788,49.0309937 C36.4651414,49.4178682 37.3345551,49.6354851 38.2522696,49.6354851 C38.9284803,49.6354851 39.5805406,49.5145868 40.1843001,49.2969699 L45.304181,47.2175196 C46.946407,46.6613875 48.2505276,45.4040455 48.8784375,43.8081882 C51.0761223,42.9377207 52.6217467,40.809911 52.6217467,38.3194066 C52.6217467,38.1017897 52.5975963,37.8841728 52.5734459,37.6665559 C53.8775665,36.5784714 54.6745291,34.9342549 54.6745291,33.1449604 C54.6745291,32.2261336 54.4571757,31.355666 54.0707696,30.5577374 C54.4571757,29.7598088 54.6745291,28.8893412 54.6745291,27.9705143 C54.6745291,27.0516874 54.4571757,26.1812198 54.0707696,25.3832912 C54.2156719,25.117315 54.3122734,24.8271592 54.4088749,24.5370033 C57.5242742,23.2554816 58.9008459,20.6682585 58.9008459,19.0724013 Z" id="Path-Copy-2" fill="#FFFFFF"></path>
                        <path d="M59.8983051,19.0145455 C59.8983051,16.5963636 57.7881356,15.0181818 54.1525424,13.7454545 C53.8728814,13.3890909 53.5677966,13.0581818 53.2372881,12.7781818 C53.2627119,12.5490909 53.2881356,12.32 53.2881356,12.0909091 C53.2881356,9.46909091 51.6610169,7.20363636 49.3474576,6.31272727 C48.4322034,3.99636364 46.1949153,2.36727273 43.5762712,2.36727273 C43.3474576,2.36727273 43.1186441,2.39272727 42.8898305,2.41818182 C41.7457627,1.04363636 40.0169492,0.203636364 38.1355932,0.203636364 C37.1694915,0.203636364 36.2542373,0.432727273 35.4152542,0.84 C34.5762712,0.432727273 33.6610169,0.203636364 32.6949153,0.203636364 C31.7288136,0.203636364 30.8135593,0.432727273 29.9745763,0.84 C29.1355932,0.432727273 28.220339,0.203636364 27.2542373,0.203636364 C26.2881356,0.203636364 25.3728814,0.432727273 24.5338983,0.84 C23.6949153,0.432727273 22.779661,0.203636364 21.8135593,0.203636364 C19.9322034,0.203636364 18.2288136,1.04363636 17.059322,2.41818182 C16.8305085,2.39272727 16.6016949,2.36727273 16.3728814,2.36727273 C13.7542373,2.36727273 11.4915254,3.99636364 10.6016949,6.31272727 C8.28813559,7.22909091 6.66101695,9.46909091 6.66101695,12.0909091 C6.66101695,12.32 6.68644068,12.5490909 6.71186441,12.7781818 C6.38135593,13.0581818 6.05084746,13.3890909 5.79661017,13.7454545 C2.6440678,14.84 0.0508474576,16.3163636 0.0508474576,19.0145455 C0.0508474576,20.6945455 1.5,23.4181818 4.80508475,24.7927273 C4.90677966,25.0981818 5.00847458,25.4036364 5.16101695,25.6836364 C4.75423729,26.5236364 4.52542373,27.44 4.52542373,28.4072727 C4.52542373,29.3745455 4.75423729,30.2909091 5.16101695,31.1309091 C4.75423729,31.9709091 4.52542373,32.8872727 4.52542373,33.8545455 C4.52542373,35.7381818 5.36440678,37.4436364 6.73728814,38.6145455 C6.71186441,38.8436364 6.68644068,39.0727273 6.68644068,39.3018182 C6.68644068,41.9236364 8.31355932,44.1890909 10.6271186,45.08 C11.3389831,46.8872727 12.8898305,48.2872727 14.8220339,48.7963636 L14.8220339,53.0981818 C14.8220339,54.6 16.0423729,55.7963636 17.5169492,55.7963636 C19.0169492,55.7963636 20.2118644,54.5745455 20.2118644,53.0981818 L20.2118644,50.96 C20.7457627,51.1127273 21.279661,51.1890909 21.8389831,51.1890909 C22.8050847,51.1890909 23.720339,50.96 24.559322,50.5527273 C25.3983051,50.96 26.3135593,51.1890909 27.279661,51.1890909 C28.2457627,51.1890909 29.1610169,50.96 30,50.5527273 C30.8389831,50.96 31.7542373,51.1890909 32.720339,51.1890909 C33.6864407,51.1890909 34.6016949,50.96 35.440678,50.5527273 C36.279661,50.96 37.1949153,51.1890909 38.1610169,51.1890909 C38.8728814,51.1890909 39.559322,51.0618182 40.1949153,50.8327273 L40.1949153,53.0727273 C40.1949153,54.5745455 41.4152542,55.7709091 42.8898305,55.7709091 C44.3898305,55.7709091 45.5847458,54.5490909 45.5847458,53.0727273 L45.5847458,48.6436364 C47.3135593,48.0581818 48.6864407,46.7345455 49.3474576,45.0545455 C51.6610169,44.1381818 53.2881356,41.8981818 53.2881356,39.2763636 C53.2881356,39.0472727 53.2627119,38.8181818 53.2372881,38.5890909 C54.6101695,37.4436364 55.4491525,35.7127273 55.4491525,33.8290909 C55.4491525,32.8618182 55.220339,31.9454545 54.8135593,31.1054545 C55.220339,30.2654545 55.4491525,29.3490909 55.4491525,28.3818182 C55.4491525,27.4145455 55.220339,26.4981818 54.8135593,25.6581818 C54.9661017,25.3781818 55.0677966,25.0727273 55.1694915,24.7672727 C58.4491525,23.4181818 59.8983051,20.6945455 59.8983051,19.0145455 Z M12.8389831,8.55272727 C12.8389831,6.61818182 14.4152542,5.04 16.3474576,5.04 C17.0847458,5.04 17.7711864,5.26909091 18.3559322,5.67636364 C18.6864407,4.07272727 20.1101695,2.87636364 21.7881356,2.87636364 C22.8813559,2.87636364 23.8728814,3.38545455 24.5084746,4.2 C25.1440678,3.41090909 26.1355932,2.87636364 27.2288136,2.87636364 C28.3220339,2.87636364 29.3135593,3.38545455 29.9491525,4.2 C30.5847458,3.41090909 31.5762712,2.87636364 32.6694915,2.87636364 C33.7627119,2.87636364 34.7542373,3.38545455 35.3898305,4.2 C36.0254237,3.41090909 37.0169492,2.87636364 38.1101695,2.87636364 C39.8135593,2.87636364 41.2118644,4.07272727 41.5423729,5.67636364 C42.1016949,5.26909091 42.7881356,5.04 43.5508475,5.04 C45.4830508,5.04 47.059322,6.61818182 47.059322,8.55272727 C48.9915254,8.55272727 50.5677966,10.1309091 50.5677966,12.0654545 C50.5677966,12.2690909 50.5423729,12.4472727 50.5169492,12.6509091 C49.6525424,12.4218182 48.7372881,12.2181818 47.7711864,12.0145455 C42.7372881,10.8945455 37.779661,10.2072727 37.5762712,10.1818182 C35.3898305,9.85090909 32.720339,9.64727273 29.9491525,9.64727273 C27.1779661,9.64727273 24.5338983,9.82545455 22.2711864,10.1818182 L22.2711864,10.2072727 C21.8389831,10.2327273 21.3559322,10.3090909 20.8220339,10.3854545 C19.9830508,10.5127273 18.6610169,10.7163636 17.1610169,10.9963636 C14.1864407,11.5309091 11.5677966,12.0909091 9.38135593,12.6509091 C9.3559322,12.4727273 9.33050847,12.2690909 9.33050847,12.0654545 C9.33050847,10.1309091 10.9067797,8.55272727 12.8389831,8.55272727 Z M2.74576271,19.0145455 C2.74576271,18.4036364 3.40677966,17.7927273 4.47457627,17.2327273 C5.28813559,16.8254545 6.33050847,16.4181818 7.5,16.0363636 C13.3983051,14.1527273 22.7033898,12.88 22.7033898,12.88 C24.8644068,12.5490909 27.4067797,12.3709091 29.9491525,12.3709091 C32.4915254,12.3709091 35.059322,12.5490909 37.1949153,12.88 C37.1949153,12.88 46.4745763,14.1527273 52.3983051,16.0363636 C53.5677966,16.4181818 54.6101695,16.8 55.4237288,17.2327273 C56.4915254,17.7927273 57.1525424,18.3781818 57.1525424,19.0145455 C57.1525424,19.5490909 56.6186441,20.72 55.2711864,21.6363636 C55.1186441,21.7381818 54.940678,21.8654545 54.7372881,21.9672727 C54.7118644,21.9672727 54.7118644,21.9927273 54.6864407,21.9927273 C54.5084746,22.0945455 54.3305085,22.1709091 54.1271186,22.2727273 C53.6949153,22.4509091 53.2118644,22.6036364 52.6779661,22.7054545 C52.0423729,22.8327273 51.3559322,22.9090909 50.5932203,22.9090909 C47.9745763,22.9090909 44.9237288,18.7345455 43.9067797,18.7345455 C43.6779661,18.7345455 43.5508475,18.9381818 43.5508475,19.4218182 L43.5508475,29.2218182 C43.5508475,39.6836364 36.6101695,41.7963636 29.9491525,41.7963636 C23.2881356,41.7963636 16.3474576,39.6836364 16.3474576,29.2218182 L16.3474576,19.4218182 C16.3474576,18.9381818 16.220339,18.7345455 15.9915254,18.7345455 C14.9745763,18.7345455 11.9237288,22.9090909 9.30508475,22.9090909 C8.51694915,22.9090909 7.83050847,22.8327273 7.22033898,22.7054545 C6.68644068,22.6036364 6.20338983,22.4509091 5.77118644,22.2727273 C5.56779661,22.1963636 5.38983051,22.0945455 5.21186441,21.9927273 C5.18644068,21.9927273 5.18644068,21.9672727 5.16101695,21.9672727 C4.98305085,21.8654545 4.80508475,21.7636364 4.62711864,21.6363636 C3.27966102,20.72 2.74576271,19.5490909 2.74576271,19.0145455 Z M52.7288136,28.4072727 C52.7288136,29.5018182 52.220339,30.4945455 51.4067797,31.1309091 C52.1949153,31.7672727 52.7288136,32.76 52.7288136,33.8545455 C52.7288136,35.56 51.5338983,36.96 49.9322034,37.2909091 C50.3389831,37.8509091 50.5677966,38.5381818 50.5677966,39.3018182 C50.5677966,41.2363636 48.9915254,42.8145455 47.059322,42.8145455 C47.059322,44.7490909 45.4830508,46.3272727 43.5508475,46.3272727 C42.8135593,46.3272727 42.1271186,46.0981818 41.5423729,45.6909091 C41.2118644,47.2945455 39.7881356,48.4909091 38.1101695,48.4909091 C37.0169492,48.4909091 36.0254237,47.9818182 35.3898305,47.1672727 C34.7542373,47.9563636 33.7627119,48.4909091 32.6694915,48.4909091 C31.5762712,48.4909091 30.5847458,47.9818182 29.9491525,47.1672727 C29.3135593,47.9563636 28.3220339,48.4909091 27.2288136,48.4909091 C26.1355932,48.4909091 25.1440678,47.9818182 24.5084746,47.1672727 C23.8728814,47.9563636 22.8813559,48.4909091 21.7881356,48.4909091 C20.0847458,48.4909091 18.6864407,47.2945455 18.3559322,45.6909091 C17.7966102,46.0981818 17.1101695,46.3272727 16.3474576,46.3272727 C14.4152542,46.3272727 12.8389831,44.7490909 12.8389831,42.8145455 C10.9067797,42.8145455 9.33050847,41.2363636 9.33050847,39.3018182 C9.33050847,38.5636364 9.55932203,37.8763636 9.96610169,37.2909091 C8.36440678,36.96 7.16949153,35.5345455 7.16949153,33.8545455 C7.16949153,32.76 7.6779661,31.7672727 8.49152542,31.1309091 C7.70338983,30.4945455 7.16949153,29.5018182 7.16949153,28.4072727 C7.16949153,27.3127273 7.6779661,26.32 8.49152542,25.6836364 C8.46610169,25.6581818 8.44067797,25.6327273 8.41525424,25.6072727 C8.69491525,25.6327273 9,25.6327273 9.30508475,25.6327273 C10.9067797,25.6327273 12.3559322,24.8945455 13.6271186,24.0036364 L13.6271186,29.2218182 C13.6271186,36.1963636 16.4491525,44.52 29.9745763,44.52 C43.4745763,44.52 46.3220339,36.1963636 46.3220339,29.2218182 L46.3220339,24.0036364 C47.5932203,24.8945455 49.0423729,25.6327273 50.6440678,25.6327273 C50.9491525,25.6327273 51.2288136,25.6072727 51.5338983,25.6072727 C51.5084746,25.6327273 51.4830508,25.6581818 51.4576271,25.6836364 C52.220339,26.32 52.7288136,27.2872727 52.7288136,28.4072727 Z" id="Shape" fill="#000000"></path>
                    </g>
                    <path d="M38.4915254,35.56 C41.720339,35.56 41.4661017,31.0036364 38.4915254,31.0036364 C35.5423729,31.0036364 35.2881356,35.56 38.4915254,35.56 Z" id="Shape" fill="#000000"></path>
                    <path d="M21.4067797,35.56 C24.6355932,35.56 24.3813559,31.0036364 21.4067797,31.0036364 C18.4322034,31.0036364 18.1779661,35.56 21.4067797,35.56 Z" id="Shape" fill="#000000"></path>
                </g>
            </g>
        </g>
    </g>
</svg>